<?xml version="1.0" encoding="UTF-8" standalone="no"?>
<svg width="200px" height="24px" viewBox="0 0 200 24" version="1.1" xmlns="http://www.w3.org/2000/svg" xmlns:xlink="http://www.w3.org/1999/xlink">
    <!-- Generator: Sketch 48.1 (47250) - http://www.bohemiancoding.com/sketch -->
    <title>!UI Kit / Logos / BCBSMA Horizontal</title>
    <desc>Created with Sketch.</desc>
    <defs></defs>
    <g id="!UI-Kit-/-Header-/-Mobile-/-Default" stroke="none" stroke-width="1" fill="none" fill-rule="evenodd" transform="translate(-15.000000, -15.000000)">
        <g id="!UI-Kit-/-Logos-/-BCBSMA-Horizontal" transform="translate(15.000000, 15.000000)">
            <g id="Updated-2/7/2018">
                <polygon id="Fill-1" fill="#686868" points="61.5062762 17.5379531 59.748954 17.5379531 57.2384937 9.11020702 57.2384937 17.5379531 55.2301255 17.5379531 55.2301255 7.74715809 58.6610879 7.74715809 60.6694561 14.8986953 62.8451883 7.74715809 66.1087866 7.74715809 66.1087866 17.5379531 64.1841004 17.5379531 64.1841004 9.11020702"></polygon>
                <path d="M75.3138075,13.8772174 L73.9748954,9.70548736 L72.5523013,13.8772174 L75.3138075,13.8772174 Z M69.2887029,17.5381233 L72.8033473,7.74732836 L75.2301255,7.74732836 L78.5774059,17.5381233 L76.4853556,17.5381233 L75.8158996,15.494827 L71.9665272,15.494827 L71.2133891,17.5381233 L69.2887029,17.5381233 Z" id="Fill-2" fill="#686868"></path>
                <g id="Group-57">
                    <path d="M86.8617573,10.556946 C86.7780753,9.5352978 86.2759833,9.10961106 85.2717992,9.10961106 C84.5186611,9.10961106 83.765523,9.5352978 83.765523,10.3866713 C83.765523,11.4083194 84.6860251,11.5785941 85.5228452,11.7488688 C87.0291213,12.0894182 89.1211715,12.515105 89.1211715,14.5584013 C89.1211715,17.0273844 87.0291213,17.7936205 84.9370711,17.7936205 C82.7613389,17.7936205 81.1713808,16.942247 81.2550628,14.473264 L83.347113,14.473264 C83.263431,15.5800495 83.849205,16.2611483 84.9370711,16.2611483 C85.7738912,16.2611483 86.8617573,16.0057362 86.8617573,14.984088 C86.8617573,13.7921652 85.5228452,13.7070278 84.6860251,13.5367531 C83.347113,13.1962037 81.5061088,12.6002423 81.5061088,10.812358 C81.5061088,8.59878697 83.514477,7.5771388 85.5228452,7.5771388 C87.3638494,7.5771388 88.8701255,8.59878697 88.8701255,10.556946 L86.8617573,10.556946 Z" id="Fill-3" fill="#686868"></path>
                    <path d="M97.9079498,10.556946 C97.8242678,9.5352978 97.3221757,9.10961106 96.3179916,9.10961106 C95.5648536,9.10961106 94.8117155,9.5352978 94.8117155,10.3866713 C94.8117155,11.4083194 95.7322176,11.5785941 96.5690377,11.7488688 C98.0753138,12.0894182 100.167364,12.515105 100.167364,14.5584013 C100.167364,17.0273844 98.0753138,17.7936205 95.9832636,17.7936205 C93.8075314,17.7936205 92.2175732,16.942247 92.3012552,14.473264 L94.3933054,14.473264 C94.3096234,15.5800495 94.8953975,16.2611483 95.9832636,16.2611483 C96.8200837,16.2611483 97.9079498,16.0057362 97.9079498,14.984088 C97.9079498,13.7921652 96.5690377,13.7070278 95.7322176,13.5367531 C94.3933054,13.1962037 92.5523013,12.6002423 92.5523013,10.812358 C92.5523013,8.59878697 94.5606695,7.5771388 96.5690377,7.5771388 C98.4100418,7.5771388 99.916318,8.59878697 99.916318,10.556946 L97.9079498,10.556946 Z" id="Fill-5" fill="#686868"></path>
                    <path d="M108.954142,13.8772174 L107.614393,9.70548736 L106.192636,13.8772174 L108.954142,13.8772174 Z M102.929038,17.5381233 L106.443682,7.74732836 L108.869623,7.74732836 L112.216904,17.5381233 L110.124854,17.5381233 L109.456234,15.494827 L105.606862,15.494827 L104.853724,17.5381233 L102.929038,17.5381233 Z" id="Fill-7" fill="#686868"></path>
                    <path d="M120.837155,10.8974102 C120.837155,9.87576205 120.251381,9.02438858 118.996151,9.02438858 C117.489874,9.02438858 117.155146,11.2379596 117.155146,12.6001572 C117.155146,13.9632061 117.489874,16.1759258 118.996151,16.1759258 C120.251381,16.1759258 120.837155,15.3245523 120.837155,14.3029041 L123.012887,14.3029041 C122.929205,16.7718872 121.171046,17.708398 118.996151,17.708398 C116.234644,17.708398 114.979414,15.494827 114.979414,12.6001572 C114.979414,9.70548736 116.234644,7.49191632 118.996151,7.49191632 C121.255565,7.49191632 122.929205,8.42842714 123.012887,10.8974102 L120.837155,10.8974102 Z" id="Fill-9" fill="#686868"></path>
                    <polygon id="Fill-11" fill="#686868" points="126.44318 17.5379531 126.44318 7.74715809 128.53523 7.74715809 128.53523 11.5783387 132.217238 11.5783387 132.217238 7.74715809 134.309289 7.74715809 134.309289 17.5379531 132.217238 17.5379531 132.217238 13.1959483 128.53523 13.1959483 128.53523 17.5379531"></polygon>
                    <path d="M146.526862,7.74758377 L146.526862,13.8774728 C146.526862,16.5167306 144.686695,17.7086534 142.342762,17.7086534 C139.999665,17.7086534 138.158661,16.4315932 138.158661,13.8774728 L138.158661,7.74758377 L140.250711,7.74758377 L140.250711,13.1112367 C140.250711,14.7288463 140.33523,16.2613185 142.342762,16.2613185 C144.35113,16.2613185 144.434812,14.7288463 144.434812,13.1112367 L144.434812,7.74758377 L146.526862,7.74758377 Z" id="Fill-13" fill="#686868"></path>
                    <path d="M155.731883,10.556946 C155.648201,9.5352978 155.146946,9.10961106 154.142762,9.10961106 C153.388787,9.10961106 152.636485,9.5352978 152.636485,10.3866713 C152.636485,11.4083194 153.556151,11.5785941 154.392971,11.7488688 C155.899247,12.0894182 157.991297,12.515105 157.991297,14.5584013 C157.991297,17.0273844 155.899247,17.7936205 153.807197,17.7936205 C151.632301,17.7936205 150.041506,16.942247 150.126025,14.473264 L152.218075,14.473264 C152.133556,15.5800495 152.719331,16.2611483 153.807197,16.2611483 C154.644017,16.2611483 155.731883,16.0057362 155.731883,14.984088 C155.731883,13.7921652 154.392971,13.7070278 153.556151,13.5367531 C152.218075,13.1962037 150.377071,12.6002423 150.377071,10.812358 C150.377071,8.59878697 152.384603,7.5771388 154.392971,7.5771388 C156.234812,7.5771388 157.740251,8.59878697 157.740251,10.556946 L155.731883,10.556946 Z" id="Fill-15" fill="#686868"></path>
                    <polygon id="Fill-17" fill="#686868" points="161.422929 7.74758377 167.865607 7.74758377 167.865607 9.36519338 163.514979 9.36519338 163.514979 11.6639018 167.614561 11.6639018 167.614561 13.2815114 163.514979 13.2815114 163.514979 15.9207691 168.032971 15.9207691 168.032971 17.5383788 161.422929 17.5383788"></polygon>
                    <polygon id="Fill-19" fill="#686868" points="171.04636 7.74758377 178.828787 7.74758377 178.828787 9.36519338 175.982762 9.36519338 175.982762 17.5383788 173.890711 17.5383788 173.890711 9.36519338 171.04636 9.36519338"></polygon>
                    <polygon id="Fill-21" fill="#686868" points="181.254895 7.74758377 189.038159 7.74758377 189.038159 9.36519338 186.192134 9.36519338 186.192134 17.5383788 184.100084 17.5383788 184.100084 9.36519338 181.254895 9.36519338"></polygon>
                    <path d="M197.406192,10.556946 C197.321674,9.5352978 196.820418,9.10961106 195.816234,9.10961106 C195.062259,9.10961106 194.309958,9.5352978 194.309958,10.3866713 C194.309958,11.4083194 195.229623,11.5785941 196.066444,11.7488688 C197.57272,12.0894182 199.66477,12.515105 199.66477,14.5584013 C199.66477,17.0273844 197.57272,17.7936205 195.480669,17.7936205 C193.305774,17.7936205 191.714979,16.942247 191.799498,14.473264 L193.891548,14.473264 C193.807029,15.5800495 194.392803,16.2611483 195.480669,16.2611483 C196.31749,16.2611483 197.406192,16.0057362 197.406192,14.984088 C197.406192,13.7921652 196.066444,13.7070278 195.229623,13.5367531 C193.891548,13.1962037 192.050544,12.6002423 192.050544,10.812358 C192.050544,8.59878697 194.058912,7.5771388 196.066444,7.5771388 C197.908285,7.5771388 199.413724,8.59878697 199.413724,10.556946 L197.406192,10.556946 Z" id="Fill-23" fill="#686868"></path>
                    <path d="M35.3973222,22.9022871 C39.3303766,20.6878647 41.7571548,16.856684 43.0123849,13.0255034 C44.2676151,9.0248994 44.3512971,4.17207058 42.9287029,1.27740076 C40.6692887,2.46932363 38.0751464,2.80902165 35.3973222,2.80902165 C32.7194979,2.80902165 30.2090377,2.46932363 27.8659414,1.27740076 C26.3596653,4.25720793 26.4433473,9.0248994 27.7822594,13.0255034 C29.0374895,16.856684 31.4642678,20.6035787 35.3973222,22.9022871" id="Fill-25" fill="#FFFFFF"></path>
                    <polygon id="Fill-27" fill="#FFFFFF" points="15.9833473 22.9022871 15.9833473 16.516986 22.2594979 16.516986 22.2594979 7.2370151 15.9833473 7.2370151 15.9833473 0.851714026 6.86200837 0.851714026 6.86200837 7.2370151 0.585857741 7.2370151 0.585857741 16.516986 6.86200837 16.516986 6.86200837 22.9022871"></polygon>
                    <path d="M18.7446862,22.4766003 C18.9120502,22.4766003 19.0794142,22.4766003 19.0794142,22.2203369 C19.0794142,22.0509136 18.9120502,22.0509136 18.7446862,22.0509136 L18.4936402,22.0509136 L18.4936402,22.4766003 L18.7446862,22.4766003 Z M18.4936402,23.1576991 L18.3262762,23.1576991 L18.3262762,21.7946502 L18.8283682,21.7946502 C19.1630962,21.7946502 19.3304603,21.8806389 19.3304603,22.2203369 C19.3304603,22.4766003 19.1630962,22.5617377 18.9957322,22.5617377 L19.4141423,23.1576991 L19.1630962,23.1576991 L18.8283682,22.5617377 L18.5773222,22.5617377 L18.5773222,23.1576991 L18.4936402,23.1576991 Z M18.7446862,23.4973971 C19.2467782,23.4973971 19.6651883,23.0717104 19.6651883,22.4766003 C19.6651883,21.8806389 19.2467782,21.5392381 18.7446862,21.5392381 C18.2425941,21.5392381 17.8241841,21.9649249 17.8241841,22.4766003 C17.8241841,23.0717104 18.2425941,23.4973971 18.7446862,23.4973971 Z M17.5731381,22.5617377 C17.5731381,21.8806389 18.0752301,21.3689634 18.7446862,21.3689634 C19.3304603,21.3689634 19.9162343,21.8806389 19.9162343,22.5617377 C19.9162343,23.2419851 19.4141423,23.7536605 18.7446862,23.7536605 C18.0752301,23.6676718 17.5731381,23.1576991 17.5731381,22.5617377 Z" id="Fill-29" fill="#0081C6"></path>
                    <path d="M40.5020084,22.4766003 C40.6693724,22.4766003 40.8367364,22.4766003 40.8367364,22.2203369 C40.8367364,22.0509136 40.6693724,22.0509136 40.5856904,22.0509136 L40.3346444,22.0509136 L40.3346444,22.4766003 L40.5020084,22.4766003 Z M40.2509623,23.1576991 L40.0835983,23.1576991 L40.0835983,21.7946502 L40.5856904,21.7946502 C40.9204184,21.7946502 41.0877824,21.8806389 41.0877824,22.2203369 C41.0877824,22.4766003 40.9204184,22.5617377 40.7530544,22.5617377 L41.1714644,23.1576991 L40.9204184,23.1576991 L40.5856904,22.5617377 L40.3346444,22.5617377 L40.3346444,23.1576991 L40.2509623,23.1576991 Z M40.5020084,23.4973971 C41.0041004,23.4973971 41.4225105,23.0717104 41.4225105,22.4766003 C41.4225105,21.8806389 41.0041004,21.5392381 40.5020084,21.5392381 C39.9999163,21.5392381 39.5815063,21.9649249 39.5815063,22.4766003 C39.5815063,23.0717104 39.9999163,23.4973971 40.5020084,23.4973971 Z M39.3304603,22.5617377 C39.3304603,21.8806389 39.8325523,21.3689634 40.5020084,21.3689634 C41.1714644,21.3689634 41.6735565,21.8806389 41.6735565,22.5617377 C41.6735565,23.2419851 41.1714644,23.7536605 40.5020084,23.7536605 C39.9162343,23.6676718 39.3304603,23.1576991 39.3304603,22.5617377 Z" id="Fill-31" fill="#0081C6"></path>
                    <polygon id="Fill-33" fill="#0081C6" points="16.485523 23.5832156 16.485523 17.1119258 22.9290377 17.1119258 22.9290377 6.72602074 16.485523 6.72602074 16.485523 0.255582318 6.36 0.255582318 6.36 6.72602074 0.000167364017 6.72602074 0.000167364017 17.1119258 6.36 17.1119258 6.36 23.5832156"></polygon>
                    <path d="M35.4810879,23.8384573 C39.9162343,21.3694743 42.5103766,17.4531563 43.9329707,13.1111515 C45.3555649,8.59887211 45.1045188,3.32035656 43.4308787,0 C40.9204184,1.27706021 38.4099582,1.958159 35.4810879,1.958159 C32.5522176,1.958159 30.0417573,1.27706021 27.5312971,0 C25.8576569,3.32035656 25.6066109,8.59887211 27.029205,13.1111515 C28.3681172,17.4531563 31.0459414,21.3694743 35.4810879,23.8384573" id="Fill-35" fill="#0081C6"></path>
                    <path d="M41.8410042,11.1530777 C40.7531381,15.8356318 37.9916318,19.4114004 35.4811715,20.9438727 C33.0543933,19.4114004 30.292887,15.8356318 29.1213389,11.1530777 C28.5355649,8.6840946 28.3682008,5.87456212 29.1213389,3.66099109 C30.209205,3.91640313 31.2133891,4.17181517 32.3012552,4.34208987 C33.3891213,4.51236456 34.3933054,4.59750191 35.3974895,4.59750191 C36.4016736,4.59750191 37.4895397,4.51236456 38.4937238,4.34208987 C39.58159,4.17181517 40.5857741,3.91640313 41.6736402,3.66099109 C42.5941423,5.87456212 42.4267782,8.59895725 41.8410042,11.1530777 Z M42.4267782,2.46906822 C40.5857741,3.06502965 39.58159,3.3204417 38.5774059,3.49071639 C37.6569038,3.57585374 36.8200837,3.66099109 35.4811715,3.74612843 C34.1422594,3.74612843 33.3054393,3.66099109 32.3849372,3.49071639 C31.3807531,3.3204417 30.376569,3.150167 28.5355649,2.46906822 C27.3640167,5.44887539 27.6150628,9.28005603 28.7029289,12.6004126 C29.958159,16.2613185 31.8828452,19.5816751 35.4811715,21.8803835 C39.0794979,19.5816751 41.0041841,16.3464559 42.2594142,12.6004126 C43.3472803,9.28005603 43.5983264,5.44887539 42.4267782,2.46906822 Z" id="Fill-37" fill="#FFFFFF"></path>
                    <path d="M36.150795,12.5153604 L36.150795,10.472064 C36.150795,10.472064 35.899749,10.3869267 35.5650209,10.3869267 L34.8955649,10.3869267 L34.8955649,10.5572014 C34.8955649,10.5572014 34.6445188,10.6423387 34.6445188,10.7274761 C34.6445188,10.7274761 34.5608368,10.8126134 34.5608368,10.8977508 C34.7282008,11.4085749 34.9792469,11.9193989 35.0629289,12.430223 C35.4813389,12.430223 35.7323849,12.430223 36.150795,12.5153604" id="Fill-39" fill="#FFFFFF"></path>
                    <path d="M33.8074477,12.1744704 C33.7237657,12.9407066 34.2258577,13.4515307 34.8116318,13.5375194 C35.2300418,13.6218053 35.7321339,13.7069427 36.1505439,13.7069427 C36.2342259,13.7069427 36.3179079,13.7069427 36.40159,13.79208 C36.485272,13.79208 36.485272,13.8772174 36.568954,13.9632061 L36.568954,14.1326294 C36.485272,14.2177668 36.40159,14.2177668 36.40159,14.2177668 L36.40159,15.1542776 C36.40159,15.1542776 36.82,15.1542776 37.071046,14.9840029 C37.3220921,14.8145796 37.5731381,14.5583162 37.5731381,14.3029041 C37.6568201,13.9632061 37.5731381,13.6218053 37.4057741,13.281256 C37.23841,13.0258439 36.987364,12.9407066 36.736318,12.8555692 C36.1505439,12.6852945 35.5647699,12.6852945 34.9789958,12.6001572 C34.8953138,12.6001572 34.8116318,12.5150198 34.8116318,12.4298825 C34.8116318,12.2596078 34.8953138,12.1744704 34.8953138,12.1744704 C34.8953138,12.1744704 34.8116318,11.9190584 34.7279498,11.7487837 C34.6442678,11.578509 34.5605858,11.323097 34.4769038,11.2379596 C34.0584937,11.4082343 33.8074477,11.7487837 33.8074477,12.1744704" id="Fill-41" fill="#FFFFFF"></path>
                    <path d="M36.150795,13.9628656 L36.150795,15.6656125 L35.7323849,15.4953378 L35.2302929,15.3250631 L35.2302929,13.8768768 C35.6487029,13.9628656 35.8160669,13.9628656 36.150795,13.9628656" id="Fill-43" fill="#FFFFFF"></path>
                    <path d="M34.2258577,14.9838326 C33.9748117,15.5797941 34.3095397,16.0914695 34.7279498,16.3468816 C34.9789958,16.4311675 35.3137238,16.6014422 35.5647699,16.6865796 C35.8158159,16.7725683 36.2342259,17.1122663 36.3179079,17.198255 C36.3179079,17.282541 36.2342259,17.3685297 36.2342259,17.3685297 L36.2342259,18.0496285 C36.2342259,18.0496285 36.485272,17.9636398 36.736318,17.7942165 C36.903682,17.6239418 37.071046,17.4528157 37.071046,17.1122663 C37.071046,16.7725683 36.903682,16.4311675 36.40159,16.1757555 C35.9831799,15.9211948 35.4810879,15.7500688 35.1463598,15.5797941 C35.0626778,15.5797941 35.0626778,15.4095194 35.0626778,15.4095194 C35.0626778,15.324382 35.1463598,15.324382 35.1463598,15.324382 L35.1463598,14.5581459 C35.1463598,14.5581459 34.8116318,14.6441346 34.7279498,14.7284206 C34.4769038,14.6441346 34.3095397,14.7284206 34.2258577,14.9838326" id="Fill-45" fill="#FFFFFF"></path>
                    <path d="M36.0670293,17.2827113 L36.0670293,17.1975739 C35.9833473,17.1124366 35.8159833,17.0272993 35.7323013,16.9430133 C35.6486192,16.8570246 35.3138912,16.7718872 35.3138912,16.7718872 C35.3138912,16.7718872 35.3138912,18.5597715 35.3975732,19.4971337 C35.3975732,19.666557 35.4812552,19.7516944 35.7323013,19.7516944 C35.9833473,19.7516944 36.0670293,19.5814197 36.0670293,19.4971337 C35.9833473,19.2408703 36.0670293,17.9638101 36.0670293,17.2827113" id="Fill-47" fill="#FFFFFF"></path>
                    <path d="M36.2341423,5.78916937 C36.3178243,5.87430671 36.3178243,5.87430671 36.3178243,5.95944406 C36.4015063,6.2148561 36.3178243,6.72568019 36.4015063,6.89595488 C36.4015063,6.98109223 36.4851883,6.98109223 36.5688703,6.89595488 C36.9872803,6.72568019 37.2383264,6.29999345 37.5730544,6.12971876 C37.7404184,6.04458141 38.2425105,6.29999345 38.1588285,6.72568019 C38.0751464,6.89595488 37.9914644,6.89595488 37.9077824,7.06622958 C37.6567364,7.32164162 37.3220084,7.49191632 37.0709623,7.83246571 C36.9035983,8.0027404 36.6525523,8.1730151 36.4851883,8.42842714 C36.4015063,8.51356449 36.4015063,8.59870184 36.4015063,8.59870184 C35.8994142,8.51356449 35.3136402,8.51356449 34.8952301,8.42842714 L34.8952301,7.74732836 C34.8952301,7.74732836 35.3136402,7.66219101 35.3973222,7.49191632 C35.3973222,7.49191632 35.3973222,7.40677897 35.3136402,7.32164162 C35.2299582,7.23650428 35.1462762,7.23650428 35.0625941,7.15136693 C35.4810042,7.23650428 35.7320502,7.32164162 36.1504603,7.49191632 L36.1504603,7.32164162 C36.0667782,7.23650428 36.0667782,7.23650428 35.8994142,7.23650428 C35.6483682,7.15136693 34.9789121,7.06622958 34.9789121,7.06622958 C34.9789121,7.06622958 35.3136402,7.06622958 35.5646862,6.98109223 C35.7320502,6.98109223 35.8157322,6.89595488 35.8157322,6.89595488 C35.8157322,6.81081754 35.8157322,6.72568019 35.7320502,6.64054284 C35.6483682,6.55540549 35.5646862,6.47026815 35.5646862,6.47026815 C35.4810042,6.3851308 35.3973222,6.2148561 35.3136402,6.12971876 C35.2299582,6.04458141 34.9789121,5.87430671 34.9789121,5.87430671 L34.9789121,5.36348263 C35.0625941,5.27834528 35.1462762,5.19320793 35.2299582,5.19320793 C35.5646862,5.53375732 35.8157322,5.78916937 36.2341423,5.78916937" id="Fill-49" fill="#FFFFFF"></path>
                    <path d="M34.9789121,6.47052356 C34.8952301,6.47052356 34.8952301,6.47052356 34.9789121,6.47052356 C34.8115481,6.55566091 34.7278661,6.55566091 34.6441841,6.64079825 C34.4768201,6.64079825 34.4768201,6.55566091 34.3931381,6.38538621 C34.3094561,6.30024886 34.2257741,6.38538621 34.1420921,6.30024886 C34.3931381,6.30024886 34.7278661,6.30024886 34.9789121,6.47052356 M37.9914644,10.3017042 C37.9077824,9.87601746 37.5730544,9.45033073 37.2383264,9.28005603 C36.2341423,8.76923194 35.2299582,9.02464399 34.2257741,8.6840946 C33.891046,8.59895725 33.388954,8.42868255 33.305272,8.00299582 C33.305272,7.83272112 33.305272,7.57730908 33.472636,7.49217173 C33.723682,7.40703438 33.974728,7.66244643 34.3931381,7.74758377 C34.6441841,7.83272112 34.8115481,7.83272112 35.0625941,7.74758377 C35.1462762,7.74758377 35.2299582,7.66244643 35.2299582,7.66244643 C35.2299582,7.66244643 35.1462762,7.57730908 35.0625941,7.57730908 C34.9789121,7.49217173 34.8115481,7.49217173 34.7278661,7.40703438 C34.5605021,7.32189703 34.3094561,7.23675969 34.1420921,7.15162234 C34.3094561,7.15162234 34.6441841,7.06648499 34.8115481,7.15162234 L35.5646862,7.15162234 C35.5646862,7.15162234 35.6483682,7.15162234 35.6483682,7.06648499 C35.5646862,6.81107295 35.4810042,6.81107295 35.3973222,6.7259356 C35.2299582,6.55566091 35.1462762,6.38538621 34.8952301,6.30024886 C34.2257741,6.04483682 33.556318,5.95969947 32.8868619,6.30024886 C32.0500418,6.7259356 31.7989958,7.74758377 32.1337238,8.59895725 C32.4684519,9.28005603 33.0542259,9.79088012 33.807364,10.0462922 C34.1420921,10.1314295 34.5605021,10.2165669 34.8952301,10.2165669 C35.3973222,10.2165669 35.8157322,10.2165669 36.2341423,10.3868415 C36.3178243,10.3868415 36.4015063,10.4719789 36.4851883,10.5571162 C36.5688703,10.8125283 36.4851883,11.0679403 36.2341423,11.0679403 L36.2341423,12.2598632 C36.2341423,12.2598632 38.3261925,12.0044512 37.9914644,10.3017042" id="Fill-51" fill="#FFFFFF"></path>
                    <path d="M13.3053556,11.1530777 C13.2216736,10.982803 13.3053556,10.8976656 13.4727197,10.8976656 L16.652636,10.5571162 C16.736318,10.982803 16.82,11.4084897 16.82,11.8341765 C16.82,13.196374 16.3179079,14.4734342 15.4810879,15.4099451 L13.3053556,11.1530777 Z M17.7405021,11.9193138 C17.7405021,11.1530777 17.5731381,10.3868415 17.3220921,9.62060542 L13.1379916,10.0462922 C12.3848536,10.1314295 12.2174895,10.8976656 12.4685356,11.4084897 L15.3974059,16.9424173 C16.82,15.8356318 17.7405021,13.9626102 17.7405021,11.9193138 Z M11.4643515,17.4532414 C10.7112134,17.4532414 9.95807531,17.2829667 9.28861925,16.9424173 L11.3806695,13.6220608 L11.4643515,13.5369234 C11.4643515,13.5369234 11.5480335,13.5369234 11.5480335,13.6220608 L13.6400837,16.9424173 C12.9706276,17.2829667 12.2174895,17.4532414 11.4643515,17.4532414 Z M11.0459414,12.6004126 L7.94970711,17.2829667 C8.95389121,17.9640655 10.1254393,18.3046149 11.3806695,18.3046149 C12.6358996,18.3046149 13.8074477,17.8789281 14.8116318,17.2829667 L11.7153975,12.6004126 C11.6317155,12.3450005 11.2969874,12.2598632 11.0459414,12.6004126 Z M10.2091213,8.34354521 L7.36393305,8.34354521 C8.03338912,7.49217173 8.95389121,6.8962103 9.95807531,6.64079825 C9.62334728,7.15162234 9.87439331,7.91785847 10.2091213,8.25840786 C10.2928033,8.25840786 10.2091213,8.34354521 10.2091213,8.34354521 Z M12.7195816,8.25840786 C13.0543096,7.91785847 13.3053556,7.23675969 12.9706276,6.64079825 C13.9748117,6.98134764 14.8953138,7.57730908 15.5647699,8.34354521 L12.7195816,8.34354521 C12.7195816,8.34354521 12.6358996,8.25840786 12.7195816,8.25840786 Z M11.2133054,8.5138199 C11.2133054,8.17327051 11.1296234,8.00299582 10.8785774,7.66244643 C10.5438494,7.23675969 10.7948954,6.38538621 11.5480335,6.38538621 C12.3011715,6.38538621 12.4685356,7.23675969 12.2174895,7.66244643 C11.8827615,8.08813316 11.8827615,8.17327051 11.8827615,8.5138199 C11.8827615,8.85436929 12.2174895,9.19491868 12.8032636,9.19491868 L17.3220921,9.19491868 C16.3179079,6.98134764 14.1421757,5.53401273 11.6317155,5.53401273 C9.12125523,5.53401273 6.94552301,7.06648499 5.94133891,9.19491868 L10.4601674,9.19491868 C10.8785774,9.19491868 11.1296234,8.85436929 11.2133054,8.5138199 Z M7.36393305,15.4950824 C6.52711297,14.5585716 6.02502092,13.2815114 6.02502092,11.9193138 C6.02502092,11.4936271 6.10870293,11.0679403 6.19238494,10.6422536 L9.37230126,10.982803 C9.62334728,10.982803 9.62334728,11.0679403 9.53966527,11.238215 L7.36393305,15.4950824 Z M10.4601674,11.4936271 C10.7112134,10.982803 10.5438494,10.2165669 9.7907113,10.1314295 L5.60661088,9.70574277 C5.35556485,10.3868415 5.18820084,11.1530777 5.18820084,12.0044512 C5.18820084,14.0477475 6.10870293,15.8356318 7.61497908,17.0275547 L10.4601674,11.4936271 Z" id="Fill-53" fill="#FFFFFF"></path>
                    <path d="M34.8955649,17.878843 C34.8118828,17.9639804 34.6445188,18.2193924 34.5608368,18.5599418 C34.5608368,18.9004912 34.6445188,18.9856285 34.7282008,19.1559032 C34.8118828,19.3261779 34.9792469,19.3261779 34.9792469,19.1559032 C35.0629289,19.0707659 34.9792469,18.9856285 34.9792469,18.7302165 C34.9792469,18.5599418 35.1466109,18.4748044 35.1466109,18.4748044 L35.1466109,17.7085683 C35.1466109,17.7085683 35.0629289,17.7937057 34.8955649,17.878843" id="Fill-55" fill="#FFFFFF"></path>
                </g>
            </g>
        </g>
    </g>
</svg>